<mxfile host="app.diagrams.net" agent="Mozilla/5.0 (Windows NT 10.0; Win64; x64) AppleWebKit/537.36 (KHTML, like Gecko) Chrome/129.0.0.0 Safari/537.36" version="24.7.17">
  <diagram name="Page-1" id="8_NsUoUf-9tH7qvBU1KC">
    <mxGraphModel dx="1050" dy="557" grid="1" gridSize="10" guides="1" tooltips="1" connect="1" arrows="1" fold="1" page="1" pageScale="1" pageWidth="850" pageHeight="1100" math="0" shadow="0">
      <root>
        <mxCell id="0" />
        <mxCell id="1" parent="0" />
        <mxCell id="87ghG4bVSTsHTsQvyyni-8" value="" style="edgeStyle=orthogonalEdgeStyle;rounded=0;orthogonalLoop=1;jettySize=auto;html=1;exitX=0.5;exitY=0;exitDx=0;exitDy=0;entryX=0;entryY=0.5;entryDx=0;entryDy=0;shadow=0;textShadow=1;" parent="1" source="87ghG4bVSTsHTsQvyyni-2" target="87ghG4bVSTsHTsQvyyni-3" edge="1">
          <mxGeometry relative="1" as="geometry" />
        </mxCell>
        <mxCell id="87ghG4bVSTsHTsQvyyni-16" value="" style="edgeStyle=orthogonalEdgeStyle;rounded=0;orthogonalLoop=1;jettySize=auto;html=1;exitX=0.5;exitY=1;exitDx=0;exitDy=0;entryX=0;entryY=0.5;entryDx=0;entryDy=0;shadow=0;textShadow=1;" parent="1" source="87ghG4bVSTsHTsQvyyni-2" target="87ghG4bVSTsHTsQvyyni-9" edge="1">
          <mxGeometry relative="1" as="geometry" />
        </mxCell>
        <mxCell id="87ghG4bVSTsHTsQvyyni-2" value="Why getters/setters(acessors/mutator) is not always good" style="rounded=1;whiteSpace=wrap;html=1;shadow=0;textShadow=1;" parent="1" vertex="1">
          <mxGeometry x="10" y="608" width="180" height="60" as="geometry" />
        </mxCell>
        <mxCell id="87ghG4bVSTsHTsQvyyni-6" value="" style="edgeStyle=orthogonalEdgeStyle;rounded=0;orthogonalLoop=1;jettySize=auto;html=1;exitX=1;exitY=0.5;exitDx=0;exitDy=0;entryX=0;entryY=0.5;entryDx=0;entryDy=0;shadow=0;textShadow=1;" parent="1" source="87ghG4bVSTsHTsQvyyni-3" target="87ghG4bVSTsHTsQvyyni-4" edge="1">
          <mxGeometry relative="1" as="geometry" />
        </mxCell>
        <mxCell id="87ghG4bVSTsHTsQvyyni-7" value="" style="edgeStyle=orthogonalEdgeStyle;rounded=0;orthogonalLoop=1;jettySize=auto;html=1;exitX=1;exitY=0.5;exitDx=0;exitDy=0;entryX=0;entryY=0.5;entryDx=0;entryDy=0;shadow=0;textShadow=1;" parent="1" source="87ghG4bVSTsHTsQvyyni-3" target="87ghG4bVSTsHTsQvyyni-5" edge="1">
          <mxGeometry relative="1" as="geometry" />
        </mxCell>
        <mxCell id="87ghG4bVSTsHTsQvyyni-3" value="Thesis" style="rounded=1;whiteSpace=wrap;html=1;shadow=0;textShadow=1;" parent="1" vertex="1">
          <mxGeometry x="123" y="138" width="120" height="60" as="geometry" />
        </mxCell>
        <mxCell id="87ghG4bVSTsHTsQvyyni-4" value="They are common but not particularly object oriented (OO)" style="rounded=1;whiteSpace=wrap;html=1;shadow=0;textShadow=1;" parent="1" vertex="1">
          <mxGeometry x="323" y="88" width="120" height="60" as="geometry" />
        </mxCell>
        <mxCell id="87ghG4bVSTsHTsQvyyni-5" value="The presence of numerous getter and setter methods is a red flag that the program isn’t necessarily well designed from an OO perspective" style="rounded=1;whiteSpace=wrap;html=1;shadow=0;textShadow=1;" parent="1" vertex="1">
          <mxGeometry x="323" y="188" width="200" height="90" as="geometry" />
        </mxCell>
        <mxCell id="87ghG4bVSTsHTsQvyyni-17" value="" style="edgeStyle=orthogonalEdgeStyle;rounded=0;orthogonalLoop=1;jettySize=auto;html=1;exitX=1;exitY=0.5;exitDx=0;exitDy=0;entryX=0;entryY=0.5;entryDx=0;entryDy=0;shadow=0;textShadow=1;" parent="1" source="87ghG4bVSTsHTsQvyyni-9" target="87ghG4bVSTsHTsQvyyni-10" edge="1">
          <mxGeometry relative="1" as="geometry" />
        </mxCell>
        <mxCell id="87ghG4bVSTsHTsQvyyni-29" value="" style="edgeStyle=orthogonalEdgeStyle;rounded=0;orthogonalLoop=1;jettySize=auto;html=1;exitX=1;exitY=0.5;exitDx=0;exitDy=0;entryX=0;entryY=0.5;entryDx=0;entryDy=0;shadow=0;textShadow=1;" parent="1" source="87ghG4bVSTsHTsQvyyni-9" target="87ghG4bVSTsHTsQvyyni-27" edge="1">
          <mxGeometry relative="1" as="geometry" />
        </mxCell>
        <mxCell id="87ghG4bVSTsHTsQvyyni-32" value="" style="edgeStyle=orthogonalEdgeStyle;rounded=0;orthogonalLoop=1;jettySize=auto;html=1;exitX=1;exitY=0.5;exitDx=0;exitDy=0;entryX=0;entryY=0.5;entryDx=0;entryDy=0;shadow=0;textShadow=1;" parent="1" source="87ghG4bVSTsHTsQvyyni-9" target="87ghG4bVSTsHTsQvyyni-31" edge="1">
          <mxGeometry relative="1" as="geometry" />
        </mxCell>
        <mxCell id="87ghG4bVSTsHTsQvyyni-9" value="Reason" style="rounded=1;whiteSpace=wrap;html=1;shadow=0;textShadow=1;" parent="1" vertex="1">
          <mxGeometry x="123" y="748" width="120" height="60" as="geometry" />
        </mxCell>
        <mxCell id="87ghG4bVSTsHTsQvyyni-13" value="" style="edgeStyle=orthogonalEdgeStyle;rounded=0;orthogonalLoop=1;jettySize=auto;html=1;exitX=1;exitY=0.5;exitDx=0;exitDy=0;entryX=0;entryY=0.5;entryDx=0;entryDy=0;shadow=0;textShadow=1;" parent="1" source="87ghG4bVSTsHTsQvyyni-10" target="87ghG4bVSTsHTsQvyyni-11" edge="1">
          <mxGeometry relative="1" as="geometry" />
        </mxCell>
        <mxCell id="87ghG4bVSTsHTsQvyyni-14" value="" style="edgeStyle=orthogonalEdgeStyle;rounded=0;orthogonalLoop=1;jettySize=auto;html=1;exitX=1;exitY=0.5;exitDx=0;exitDy=0;entryX=0;entryY=0.5;entryDx=0;entryDy=0;shadow=0;textShadow=1;" parent="1" source="87ghG4bVSTsHTsQvyyni-10" target="87ghG4bVSTsHTsQvyyni-12" edge="1">
          <mxGeometry relative="1" as="geometry" />
        </mxCell>
        <mxCell id="87ghG4bVSTsHTsQvyyni-10" value="The nature of design" style="rounded=1;whiteSpace=wrap;html=1;shadow=0;textShadow=1;" parent="1" vertex="1">
          <mxGeometry x="323" y="368" width="120" height="60" as="geometry" />
        </mxCell>
        <mxCell id="87ghG4bVSTsHTsQvyyni-11" value="You must understand the havoc a feature or idiom can wreak." style="rounded=1;whiteSpace=wrap;html=1;shadow=0;textShadow=1;" parent="1" vertex="1">
          <mxGeometry x="483" y="318" width="120" height="60" as="geometry" />
        </mxCell>
        <mxCell id="87ghG4bVSTsHTsQvyyni-12" value="Getter/Setter methods are just feature that have pros and cons depending on the context of uses" style="rounded=1;whiteSpace=wrap;html=1;shadow=0;textShadow=1;" parent="1" vertex="1">
          <mxGeometry x="483" y="408" width="160" height="60" as="geometry" />
        </mxCell>
        <mxCell id="87ghG4bVSTsHTsQvyyni-24" value="" style="edgeStyle=orthogonalEdgeStyle;rounded=0;orthogonalLoop=1;jettySize=auto;html=1;exitX=1;exitY=0.5;exitDx=0;exitDy=0;entryX=0;entryY=0.5;entryDx=0;entryDy=0;shadow=0;textShadow=1;" parent="1" source="87ghG4bVSTsHTsQvyyni-18" target="87ghG4bVSTsHTsQvyyni-19" edge="1">
          <mxGeometry relative="1" as="geometry" />
        </mxCell>
        <mxCell id="87ghG4bVSTsHTsQvyyni-26" value="" style="edgeStyle=orthogonalEdgeStyle;rounded=0;orthogonalLoop=1;jettySize=auto;html=1;exitX=1;exitY=0.5;exitDx=0;exitDy=0;entryX=0;entryY=0.5;entryDx=0;entryDy=0;shadow=0;textShadow=1;" parent="1" source="87ghG4bVSTsHTsQvyyni-18" target="87ghG4bVSTsHTsQvyyni-25" edge="1">
          <mxGeometry relative="1" as="geometry" />
        </mxCell>
        <mxCell id="87ghG4bVSTsHTsQvyyni-18" value="Data abstraction" style="rounded=1;whiteSpace=wrap;html=1;shadow=0;textShadow=1;" parent="1" vertex="1">
          <mxGeometry x="323" y="598" width="120" height="60" as="geometry" />
        </mxCell>
        <mxCell id="87ghG4bVSTsHTsQvyyni-21" value="" style="edgeStyle=orthogonalEdgeStyle;rounded=0;orthogonalLoop=1;jettySize=auto;html=1;exitX=1;exitY=0.5;exitDx=0;exitDy=0;entryX=0;entryY=0.5;entryDx=0;entryDy=0;shadow=0;textShadow=1;" parent="1" source="87ghG4bVSTsHTsQvyyni-19" target="87ghG4bVSTsHTsQvyyni-20" edge="1">
          <mxGeometry relative="1" as="geometry" />
        </mxCell>
        <mxCell id="87ghG4bVSTsHTsQvyyni-23" value="" style="edgeStyle=orthogonalEdgeStyle;rounded=0;orthogonalLoop=1;jettySize=auto;html=1;exitX=1;exitY=0.5;exitDx=0;exitDy=0;entryX=0;entryY=0.5;entryDx=0;entryDy=0;shadow=0;textShadow=1;" parent="1" source="87ghG4bVSTsHTsQvyyni-19" target="87ghG4bVSTsHTsQvyyni-22" edge="1">
          <mxGeometry relative="1" as="geometry" />
        </mxCell>
        <mxCell id="87ghG4bVSTsHTsQvyyni-19" value="A fundamental precept of OO systems is that an object should not expose any of its implementation details" style="rounded=1;whiteSpace=wrap;html=1;shadow=0;textShadow=1;" parent="1" vertex="1">
          <mxGeometry x="483" y="508" width="160" height="90" as="geometry" />
        </mxCell>
        <mxCell id="87ghG4bVSTsHTsQvyyni-20" value="This way, you can change the implementation without changing the code that uses the object" style="rounded=1;whiteSpace=wrap;html=1;shadow=0;textShadow=1;" parent="1" vertex="1">
          <mxGeometry x="683" y="428" width="140" height="90" as="geometry" />
        </mxCell>
        <mxCell id="87ghG4bVSTsHTsQvyyni-22" value="In OO systems you should avoid getter and setter functions since they mostly provide access to implementation details" style="rounded=1;whiteSpace=wrap;html=1;shadow=0;textShadow=1;" parent="1" vertex="1">
          <mxGeometry x="683" y="538" width="150" height="100" as="geometry" />
        </mxCell>
        <mxCell id="87ghG4bVSTsHTsQvyyni-25" value="A system that heavily or inappropriately uses accessors simply isn’t object oriented" style="rounded=1;whiteSpace=wrap;html=1;shadow=0;textShadow=1;" parent="1" vertex="1">
          <mxGeometry x="483" y="658" width="160" height="70" as="geometry" />
        </mxCell>
        <mxCell id="87ghG4bVSTsHTsQvyyni-30" value="" style="edgeStyle=orthogonalEdgeStyle;rounded=0;orthogonalLoop=1;jettySize=auto;html=1;exitX=1;exitY=0.5;exitDx=0;exitDy=0;entryX=0;entryY=0.5;entryDx=0;entryDy=0;shadow=0;textShadow=1;" parent="1" source="87ghG4bVSTsHTsQvyyni-27" target="87ghG4bVSTsHTsQvyyni-28" edge="1">
          <mxGeometry relative="1" as="geometry" />
        </mxCell>
        <mxCell id="87ghG4bVSTsHTsQvyyni-27" value="Draw thyself" style="rounded=1;whiteSpace=wrap;html=1;shadow=0;textShadow=1;" parent="1" vertex="1">
          <mxGeometry x="323" y="748" width="120" height="60" as="geometry" />
        </mxCell>
        <mxCell id="87ghG4bVSTsHTsQvyyni-28" value="Isolate your business logic from a subsystem’s mechanics" style="rounded=1;whiteSpace=wrap;html=1;shadow=0;textShadow=1;" parent="1" vertex="1">
          <mxGeometry x="483" y="748" width="160" height="60" as="geometry" />
        </mxCell>
        <mxCell id="87ghG4bVSTsHTsQvyyni-34" value="" style="edgeStyle=orthogonalEdgeStyle;rounded=0;orthogonalLoop=1;jettySize=auto;html=1;exitX=1;exitY=0.5;exitDx=0;exitDy=0;entryX=0;entryY=0.5;entryDx=0;entryDy=0;shadow=0;textShadow=1;" parent="1" source="87ghG4bVSTsHTsQvyyni-31" target="87ghG4bVSTsHTsQvyyni-33" edge="1">
          <mxGeometry relative="1" as="geometry" />
        </mxCell>
        <mxCell id="87ghG4bVSTsHTsQvyyni-36" value="" style="edgeStyle=orthogonalEdgeStyle;rounded=0;orthogonalLoop=1;jettySize=auto;html=1;exitX=1;exitY=0.5;exitDx=0;exitDy=0;entryX=0;entryY=0.5;entryDx=0;entryDy=0;shadow=0;textShadow=1;" parent="1" source="87ghG4bVSTsHTsQvyyni-31" target="87ghG4bVSTsHTsQvyyni-35" edge="1">
          <mxGeometry relative="1" as="geometry" />
        </mxCell>
        <mxCell id="87ghG4bVSTsHTsQvyyni-31" value="When is an accessor okay?" style="rounded=1;whiteSpace=wrap;html=1;shadow=0;textShadow=1;" parent="1" vertex="1">
          <mxGeometry x="323" y="878" width="120" height="60" as="geometry" />
        </mxCell>
        <mxCell id="87ghG4bVSTsHTsQvyyni-33" value="Unless absolutely necessary because these methods expose information about how a class is implemented and as a consequence make your code harder to maintain" style="rounded=1;whiteSpace=wrap;html=1;shadow=0;textShadow=1;" parent="1" vertex="1">
          <mxGeometry x="483" y="828" width="250" height="80" as="geometry" />
        </mxCell>
        <mxCell id="87ghG4bVSTsHTsQvyyni-35" value="Sometimes get/set methods are unavoidable, but an experienced OO designer could probably eliminate 99 percent of the accessors currently in your code without much difficulty" style="rounded=1;whiteSpace=wrap;html=1;shadow=0;textShadow=1;" parent="1" vertex="1">
          <mxGeometry x="483" y="928" width="250" height="80" as="geometry" />
        </mxCell>
      </root>
    </mxGraphModel>
  </diagram>
</mxfile>
